<svg xmlns="http://www.w3.org/2000/svg" data-name="Layer 1" viewBox="0 0 64 64" id="smiley"><circle cx="32" cy="32" r="29" fill="#e2c044" stroke="#000" stroke-linejoin="round" stroke-width="2"></circle><path fill="#d3d0cb" stroke="#000" stroke-linejoin="round" stroke-width="2" d="m19 18 2.472 5.267 5.528.844-4 4.1.944 5.789L19 31.267 14.056 34 15 28.211l-4-4.1 5.528-.844L19 18zM45 18l2.472 5.267 5.528.844-4 4.1.944 5.789L45 31.267 40.056 34 41 28.211l-4-4.1 5.528-.844L45 18z"></path><path fill="#f71735" stroke="#000" stroke-linejoin="round" stroke-width="2" d="M20 42a12 12 0 0 0 24 0Z"></path><path d="M32 2a30 30 0 1 0 30 30A30.034 30.034 0 0 0 32 2Zm0 58a28 28 0 1 1 28-28 28.032 28.032 0 0 1-28 28Z"></path><path d="M23.46 34.875a1 1 0 0 0 1.471-1.036l-.863-5.291 3.648-3.738a1 1 0 0 0-.565-1.687l-5-.764-2.246-4.784a1 1 0 0 0-1.81 0l-2.246 4.784-5 .764a1 1 0 0 0-.565 1.687l3.648 3.738-.863 5.291a1 1 0 0 0 1.471 1.036L19 32.41zm-8.086-2.747.613-3.756a1 1 0 0 0-.271-.859l-2.641-2.707 3.6-.55a1 1 0 0 0 .754-.564L19 20.354l1.567 3.338a1 1 0 0 0 .754.564l3.6.55-2.641 2.707a1 1 0 0 0-.271.859l.613 3.756-3.142-1.736a1 1 0 0 0-.968 0zm30.531-14.553a1 1 0 0 0-1.81 0l-2.246 4.784-5 .764a1 1 0 0 0-.565 1.687l3.648 3.738-.863 5.291a1 1 0 0 0 1.471 1.036L45 32.41l4.46 2.465a1 1 0 0 0 1.471-1.036l-.863-5.291 3.648-3.738a1 1 0 0 0-.565-1.687l-5-.764zm2.379 9.938a1 1 0 0 0-.271.859l.613 3.756-3.142-1.736a1 1 0 0 0-.968 0l-3.142 1.736.613-3.756a1 1 0 0 0-.271-.859l-2.641-2.707 3.6-.55a1 1 0 0 0 .754-.564L45 20.354l1.567 3.338a1 1 0 0 0 .754.564l3.6.55zM44 41H20a1 1 0 0 0-1 1 13 13 0 0 0 26 0 1 1 0 0 0-1-1zM32 53a11.015 11.015 0 0 1-10.955-10h21.91A11.015 11.015 0 0 1 32 53z"></path></svg>